HIERARCHY
ROOT Hips
{
    OFFSET   0.000000   0.000000   0.000000
    CHANNELS 6 Xposition Yposition Zposition Zrotation Xrotation Yrotation
    JOINT Chest
    {
        OFFSET   0.000000   8.007230   0.000000
        CHANNELS 3 Zrotation Xrotation Yrotation
        JOINT Chest2
        {
            OFFSET   0.000000  22.077100   0.000000
            CHANNELS 3 Zrotation Xrotation Yrotation
            JOINT Neck
            {
                OFFSET   0.000000  23.255100   0.000000
                CHANNELS 3 Zrotation Xrotation Yrotation
                JOINT Head
                {
                    OFFSET   0.000000  14.370100   1.956600
                    CHANNELS 3 Zrotation Xrotation Yrotation
                    End Site
                    {
                        OFFSET   0.000000  19.566000   0.000000
                    }
                }
            }
            JOINT LeftCollar
            {
                OFFSET   3.911900  19.017000  -0.467063
                CHANNELS 3 Zrotation Xrotation Yrotation
                JOINT LeftShoulder
                {
                    OFFSET  10.383700   0.000000   0.000000
                    CHANNELS 3 Zrotation Xrotation Yrotation
                    JOINT LeftElbow
                    {
                        OFFSET  26.662100   0.001193   0.000980
                        CHANNELS 3 Zrotation Xrotation Yrotation
                        JOINT LeftWrist
                        {
                            OFFSET  28.869000  -0.000059  -0.000082
                            CHANNELS 3 Zrotation Xrotation Yrotation
                            JOINT LeftFinger0
                            {
                                OFFSET   2.044650  -2.323450   3.252850
                                CHANNELS 3 Zrotation Xrotation Yrotation
                                JOINT LeftFinger01
                                {
                                    OFFSET   3.088130   0.000000   0.000000
                                    CHANNELS 3 Zrotation Xrotation Yrotation
                                    JOINT LeftFinger02
                                    {
                                        OFFSET   2.639460   0.000000   0.000000
                                        CHANNELS 3 Zrotation Xrotation Yrotation
                                        End Site
                                        {
                                            OFFSET   2.582190   0.000000   0.000000
                                        }
                                    }
                                }
                            }
                            JOINT LeftFinger1
                            {
                                OFFSET   8.364480   0.000000   3.252850
                                CHANNELS 3 Zrotation Xrotation Yrotation
                                JOINT LeftFinger11
                                {
                                    OFFSET   4.646930   0.000000   0.000000
                                    CHANNELS 3 Zrotation Xrotation Yrotation
                                    JOINT LeftFinger12
                                    {
                                        OFFSET   2.323470   0.000000   0.000000
                                        CHANNELS 3 Zrotation Xrotation Yrotation
                                        End Site
                                        {
                                            OFFSET   2.273050   0.000000   0.000000
                                        }
                                    }
                                }
                            }
                            JOINT LeftFinger2
                            {
                                OFFSET   8.364490   0.000016   1.078090
                                CHANNELS 3 Zrotation Xrotation Yrotation
                                JOINT LeftFinger21
                                {
                                    OFFSET   5.111610   0.000000   0.000000
                                    CHANNELS 3 Zrotation Xrotation Yrotation
                                    JOINT LeftFinger22
                                    {
                                        OFFSET   2.788150   0.000016   0.000000
                                        CHANNELS 3 Zrotation Xrotation Yrotation
                                        End Site
                                        {
                                            OFFSET   2.727660   0.000000   0.000000
                                        }
                                    }
                                }
                            }
                            JOINT LeftFinger3
                            {
                                OFFSET   7.899780   0.000015  -1.078090
                                CHANNELS 3 Zrotation Xrotation Yrotation
                                JOINT LeftFinger31
                                {
                                    OFFSET   4.646930   0.000000   0.000000
                                    CHANNELS 3 Zrotation Xrotation Yrotation
                                    JOINT LeftFinger32
                                    {
                                        OFFSET   2.323470   0.000000   0.000000
                                        CHANNELS 3 Zrotation Xrotation Yrotation
                                        End Site
                                        {
                                            OFFSET   2.273050   0.000000   0.000000
                                        }
                                    }
                                }
                            }
                            JOINT LeftFinger4
                            {
                                OFFSET   7.435090   0.000000  -3.252850
                                CHANNELS 3 Zrotation Xrotation Yrotation
                                JOINT LeftFinger41
                                {
                                    OFFSET   3.717550   0.000000   0.000000
                                    CHANNELS 3 Zrotation Xrotation Yrotation
                                    JOINT LeftFinger42
                                    {
                                        OFFSET   1.858770   0.000000   0.000000
                                        CHANNELS 3 Zrotation Xrotation Yrotation
                                        End Site
                                        {
                                            OFFSET   1.818440   0.000000   0.000000
                                        }
                                    }
                                }
                            }
                        }
                    }
                }
            }
            JOINT RightCollar
            {
                OFFSET  -3.911910  19.017000  -0.467062
                CHANNELS 3 Zrotation Xrotation Yrotation
                JOINT RightShoulder
                {
                    OFFSET -10.383700   0.000014   0.000000
                    CHANNELS 3 Zrotation Xrotation Yrotation
                    JOINT RightElbow
                    {
                        OFFSET -26.662100   0.001225   0.001091
                        CHANNELS 3 Zrotation Xrotation Yrotation
                        JOINT RightWrist
                        {
                            OFFSET -28.869000  -0.000020  -0.000085
                            CHANNELS 3 Zrotation Xrotation Yrotation
                            JOINT RightFinger0
                            {
                                OFFSET  -2.044650  -2.323490   3.252850
                                CHANNELS 3 Zrotation Xrotation Yrotation
                                JOINT RightFinger01
                                {
                                    OFFSET  -3.088130   0.000000   0.000000
                                    CHANNELS 3 Zrotation Xrotation Yrotation
                                    JOINT RightFinger02
                                    {
                                        OFFSET  -2.639460   0.000000   0.000000
                                        CHANNELS 3 Zrotation Xrotation Yrotation
                                        End Site
                                        {
                                            OFFSET  -2.582190   0.000000   0.000000
                                        }
                                    }
                                }
                            }
                            JOINT RightFinger1
                            {
                                OFFSET  -8.364480   0.000000   3.252850
                                CHANNELS 3 Zrotation Xrotation Yrotation
                                JOINT RightFinger11
                                {
                                    OFFSET  -4.646930   0.000000   0.000000
                                    CHANNELS 3 Zrotation Xrotation Yrotation
                                    JOINT RightFinger12
                                    {
                                        OFFSET  -2.323470   0.000000   0.000000
                                        CHANNELS 3 Zrotation Xrotation Yrotation
                                        End Site
                                        {
                                            OFFSET  -2.273050   0.000000   0.000000
                                        }
                                    }
                                }
                            }
                            JOINT RightFinger2
                            {
                                OFFSET  -8.364480   0.000000   1.078090
                                CHANNELS 3 Zrotation Xrotation Yrotation
                                JOINT RightFinger21
                                {
                                    OFFSET  -5.111620   0.000000   0.000000
                                    CHANNELS 3 Zrotation Xrotation Yrotation
                                    JOINT RightFinger22
                                    {
                                        OFFSET  -2.788160   0.000000   0.000000
                                        CHANNELS 3 Zrotation Xrotation Yrotation
                                        End Site
                                        {
                                            OFFSET  -2.727660   0.000000   0.000000
                                        }
                                    }
                                }
                            }
                            JOINT RightFinger3
                            {
                                OFFSET  -7.899780   0.000000  -1.078090
                                CHANNELS 3 Zrotation Xrotation Yrotation
                                JOINT RightFinger31
                                {
                                    OFFSET  -4.646930   0.000000   0.000000
                                    CHANNELS 3 Zrotation Xrotation Yrotation
                                    JOINT RightFinger32
                                    {
                                        OFFSET  -2.323470   0.000000   0.000000
                                        CHANNELS 3 Zrotation Xrotation Yrotation
                                        End Site
                                        {
                                            OFFSET  -2.273050   0.000000   0.000000
                                        }
                                    }
                                }
                            }
                            JOINT RightFinger4
                            {
                                OFFSET  -7.435090   0.000000  -3.252850
                                CHANNELS 3 Zrotation Xrotation Yrotation
                                JOINT RightFinger41
                                {
                                    OFFSET  -3.717550   0.000000   0.000000
                                    CHANNELS 3 Zrotation Xrotation Yrotation
                                    JOINT RightFinger42
                                    {
                                        OFFSET  -1.858760   0.000000   0.000000
                                        CHANNELS 3 Zrotation Xrotation Yrotation
                                        End Site
                                        {
                                            OFFSET  -1.818440   0.000000   0.000000
                                        }
                                    }
                                }
                            }
                        }
                    }
                }
            }
        }
    }
    JOINT LeftHip
    {
        OFFSET   9.783030   0.000000   0.000000
        CHANNELS 3 Zrotation Xrotation Yrotation
        JOINT LeftKnee
        {
            OFFSET   0.000063 -41.789100   0.000608
            CHANNELS 3 Zrotation Xrotation Yrotation
            JOINT LeftAnkle
            {
                OFFSET   0.000048 -41.133200  -0.000184
                CHANNELS 3 Zrotation Xrotation Yrotation
                JOINT LeftToe
                {
                    OFFSET   0.000000  -6.358960  14.674500
                    CHANNELS 3 Zrotation Xrotation Yrotation
                    End Site
                    {
                        OFFSET   0.000000   0.000000   3.913200
                    }
                }
            }
        }
    }
    JOINT RightHip
    {
        OFFSET  -9.783030   0.000000   0.000000
        CHANNELS 3 Zrotation Xrotation Yrotation
        JOINT RightKnee
        {
            OFFSET   0.000071 -41.789100   0.001239
            CHANNELS 3 Zrotation Xrotation Yrotation
            JOINT RightAnkle
            {
                OFFSET   0.000037 -41.133200  -0.000166
                CHANNELS 3 Zrotation Xrotation Yrotation
                JOINT RightToe
                {
                    OFFSET   0.000000  -6.358960  14.674500
                    CHANNELS 3 Zrotation Xrotation Yrotation
                    End Site
                    {
                        OFFSET   0.000000   0.000000   3.913200
                    }
                }
            }
        }
    }
}
MOTION
Frames: 5
Frame Time:   0.016667
  0.541513  89.566500  -0.279750  -2.820700  -5.897560  -3.420080   0.833675   4.483860   0.732674   1.617040   8.977620   1.406090   0.530062   0.299983  -0.012097   0.877497   0.620024   0.260663  -4.865680  -1.946090   0.368698 -74.073700  20.940700  -0.273356  -2.495420  -7.353210 -17.586400  13.217800 -14.615800   5.748070  40.830400  33.154900 -67.608100 -27.579600  -0.005305  -0.002730  -8.800840   0.002412  -0.036617 -24.924700   3.807720  -8.132690 -20.614500   0.017070  -0.002335 -14.443600   0.012000   0.001391 -28.010700   0.254474  -0.478461 -32.043000  -0.004333   0.007774 -21.340700   0.017745   0.013551 -25.914300   0.236878  -0.487410 -25.915400   0.001455   0.001440 -17.259700  -0.001942   0.004312 -27.212600   0.247825  -0.481946 -40.820500  -0.004528   0.006030 -27.186500   0.004483   0.004978  10.648000   0.639442   8.053790  68.785700  13.953900  -8.280170  -0.451530  -9.088390  16.934500 -15.150900  -9.849010   2.475000 -45.089500  40.553400  81.780500  25.482900   0.001982  -0.000847   7.736270   0.009943   0.009974  37.030100   6.470550   8.496300  30.691000  -0.011247   0.002777  21.483700  -0.008736   0.008506  31.201100   1.814120   2.992130  46.872800  -0.000111   0.007477  31.220400  -0.000675   0.003999  28.725300   1.294460   2.360050  40.408800  -0.002287   0.006450  26.912300  -0.015125  -0.000062  32.666800   0.745558   1.162090  49.011400  -0.011535  -0.000553  32.641600  -0.003040   0.004785   1.786020   8.549910   4.080320   0.704712   0.277772   6.087730  -1.028860  -4.382160   2.998690   0.000000   0.000000  -0.000000   2.900440   7.624820  -5.809110   0.135850   1.405020  -4.007480  -1.545380  -3.661010   1.865600  -0.000000   0.000000  -0.000000
  0.541548  89.566600  -0.276573  -2.820620  -5.896660  -3.420070   0.833444   4.488670   0.733785   1.616400   8.987240   1.408290   0.534182   0.305317  -0.012107   0.881476   0.625766   0.252123  -4.862050  -1.946700   0.367682 -74.061100  20.961800  -0.281686  -2.500850  -7.375350 -17.574500  13.215300 -14.615800   5.738200  40.824900  33.149500 -67.606500 -27.579600  -0.005313  -0.002742  -8.801050   0.002411  -0.041459 -24.928700   3.812080  -8.140410 -20.618200   0.025963  -0.013074 -14.443600   0.020048  -0.004780 -28.010500   0.258864  -0.486718 -32.043500  -0.004333  -0.006216 -21.341000   0.036138   0.009476 -25.919300   0.241016  -0.495807 -25.920400   0.001458  -0.007929 -17.263000  -0.001940   0.000196 -27.212300   0.252106  -0.490273 -40.820000  -0.004526   0.001034 -27.186200   0.015027   0.005219  10.648000   0.639109   8.053490  68.785900  13.953900  -8.281050  -0.429933  -9.088680  16.934500 -15.121200  -9.833130   2.468730 -45.064300  40.533300  81.740900  25.491400   0.001980  -0.000867   7.743110   0.009942   0.009964  37.024100   6.471210   8.497850  30.686400  -0.011246   0.002775  21.480400  -0.008734   0.008498  31.200500   1.802480   2.973350  46.871000  -0.000107   0.007475  31.217900  -0.000668   0.003992  28.726400   1.278780   2.331430  40.407500  -0.002284   0.006444  26.911400  -0.015125  -0.000062  32.672800   0.745558   1.162090  49.020500  -0.011532  -0.000550  32.647700  -0.003043   0.004781   1.786140   8.548060   4.080210   0.704960   0.279483   6.087700  -1.029050  -4.384160   2.998680  -0.000000   0.000000  -0.000000   2.900470   7.624180  -5.809060   0.140314   1.405980  -3.996180  -1.545990  -3.661150   1.852930  -0.000000   0.000000   0.000000
  0.541589  89.566600  -0.271165  -2.820460  -5.894870  -3.420060   0.832839   4.496390   0.735663   1.615000   9.002660   1.412010   0.541166   0.313742  -0.012118   0.889117   0.636261   0.242636  -4.855710  -1.947300   0.364646 -74.041000  20.992500  -0.296666  -2.509310  -7.407400 -17.561800  13.210800 -14.616000   5.720670  40.816400  33.139700 -67.605100 -27.579600  -0.005321  -0.002754  -8.801450   0.002410  -0.046301 -24.935000   3.820250  -8.155240 -20.624300   0.034855  -0.028796 -14.443600   0.028096  -0.014287 -28.010200   0.265471  -0.499132 -32.046700  -0.004332  -0.026561 -21.343100   0.054530   0.001886 -25.926700   0.247190  -0.508433 -25.927800   0.001467  -0.022287 -17.267900  -0.001938  -0.006714 -27.211900   0.258535  -0.502769 -40.819500  -0.004525  -0.007631 -27.185800   0.030557   0.005461  10.648100   0.638776   8.053190  68.786100  13.953900  -8.281930  -0.397397  -9.090760  16.934600 -15.070100  -9.807530   2.455550 -45.056200  40.513100  81.701300  25.499900   0.001973  -0.000887   7.749940   0.009941   0.009948  37.011800   6.475900   8.508700  30.677000  -0.011238   0.002771  21.473900  -0.008726   0.008479  31.194000   1.790850   2.954580  46.860300  -0.000098   0.007470  31.209000  -0.000650   0.003976  28.727500   1.263100   2.302810  40.398100  -0.002275   0.006428  26.905100  -0.015124  -0.000063  32.678800   0.745558   1.162090  49.029600  -0.011523  -0.000543  32.653700  -0.003051   0.004770   1.786870   8.536150   4.079900   0.706261   0.291466   6.087470  -1.030140  -4.395440   2.998610   0.000000   0.000000   0.000000   2.900500   7.623540  -5.808930   0.147903   1.406940  -3.977250  -1.547200  -3.661320   1.830810  -0.000000   0.000000  -0.000000
  0.541597  89.566700  -0.266671  -2.819940  -5.892810  -3.416980   0.831796   4.501980   0.737613   1.612720   9.013860   1.415950   0.548496   0.318866  -0.012096   0.899437   0.645654   0.241531  -4.849680  -1.943260   0.357575 -74.026200  21.006600  -0.311122  -2.514360  -7.423550 -17.561000  13.208300 -14.617000   5.704690  40.805800  33.127900 -67.607300 -27.579600  -0.005310  -0.002753  -8.801980   0.002397  -0.037359 -24.939400   3.830280  -8.175370 -20.629000   0.033168  -0.037988 -14.443500   0.027669  -0.020588 -28.010100   0.269951  -0.507505 -32.057700  -0.004331  -0.037984 -21.350400   0.053498  -0.008093 -25.928600   0.251192  -0.516954 -25.929800   0.001482  -0.032873 -17.269200  -0.001936  -0.013770 -27.224900   0.262846  -0.511123 -40.839100  -0.004525  -0.017315 -27.198800   0.039957   0.005400  10.651600   0.640608   8.054480  68.788900  13.965900  -8.275520  -0.373707  -9.108290  16.925100 -15.013600  -9.791530   2.434250 -45.094700  40.522500  81.705900  25.485500   0.001959  -0.000867   7.742750   0.009958   0.009942  36.993700   6.491950   8.536070  30.663800  -0.011221   0.002766  21.464600  -0.008710   0.008453  31.174200   1.800020   2.971780  46.831200  -0.000088   0.007462  31.189400  -0.000620   0.003949  28.726000   1.279900   2.333800  40.323700  -0.002259   0.006403  26.855500  -0.015118  -0.000064  32.660400   0.749297   1.168770  49.002100  -0.011509  -0.000534  32.635400  -0.003066   0.004754   1.789160   8.497780   4.079230   0.707544   0.356001   6.086740  -1.033860  -4.430560   2.994550  -0.000000   0.000000  -0.000000   2.900240   7.623710  -5.808740   0.154603   1.405130  -3.961300  -1.549370  -3.661290   1.810210   0.000000   0.000000   0.000000
  0.541598  89.566800  -0.261895  -2.819080  -5.890590  -3.410800   0.830684   4.507020   0.738810   1.610320   9.023970   1.418380   0.552965   0.324719  -0.012075   0.906903   0.658044   0.241373  -4.844030  -1.936700   0.352526 -74.012900  21.017200  -0.326530  -2.517450  -7.433210 -17.561200  13.205600 -14.621500   5.686880  40.795400  33.119600 -67.610000 -27.579600  -0.005278  -0.002745  -8.802320   0.002374  -0.024340 -24.943900   3.838170  -8.189660 -20.633600   0.029021  -0.042197 -14.443500   0.025424  -0.025297 -28.010400   0.272213  -0.511720 -32.075800  -0.004330  -0.043054 -21.362500   0.048221  -0.014559 -25.933100   0.253158  -0.521245 -25.934200   0.001501  -0.038470 -17.272200  -0.001932  -0.018033 -27.246100   0.265009  -0.515307 -40.871000  -0.004525  -0.023329 -27.220000   0.044371   0.004978  10.658000   0.643995   8.059210  68.794100  13.982600  -8.269270  -0.357009  -9.145680  16.901000 -14.979200  -9.771190   2.419760 -45.160100  40.556200  81.735800  25.451600   0.001941  -0.000847   7.725770   0.009987   0.009932  36.974700   6.527040   8.586170  30.653400  -0.011198   0.002760  21.457300  -0.008689   0.008420  31.152900   1.825170   3.016170  46.801300  -0.000070   0.007452  31.169700  -0.000585   0.003917  28.722400   1.323530   2.413830  40.231100  -0.002237   0.006371  26.793900  -0.015109  -0.000066  32.625900   0.756300   1.181260  48.950700  -0.011489  -0.000521  32.601100  -0.003087   0.004734   1.790820   8.469470   4.078750   0.707774   0.410267   6.086200  -1.036970  -4.456420   2.986730  -0.000000   0.000000  -0.000000   2.899710   7.624860  -5.808550   0.160569   1.400840  -3.946370  -1.552460  -3.660880   1.789980   0.000000   0.000000   0.000000
